Coordinates
version=1
nRows=11
nColumns=36
inDegrees=yes

Units are S.I. units (second, meters, Newtons, ...)
If the header above contains a line with 'inDegrees', this indicates whether rotational values are in degrees (yes) or radians (no).

endheader
time	pelvis_tilt	pelvis_list	pelvis_rotation	pelvis_tx	pelvis_ty	pelvis_tz	hip_flexion_r	hip_adduction_r	hip_rotation_r	knee_angle_r	knee_angle_r_beta	ankle_angle_r	subtalar_angle_r	mtp_angle_r	hip_flexion_l	hip_adduction_l	hip_rotation_l	knee_angle_l	knee_angle_l_beta	ankle_angle_l	subtalar_angle_l	mtp_angle_l	lumbar_extension	lumbar_bending	lumbar_rotation	arm_flex_r	arm_add_r	arm_rot_r	elbow_flex_r	pro_sup_r	arm_flex_l	arm_add_l	arm_rot_l	elbow_flex_l	pro_sup_l
     29.76666670	     -3.05320777	     -1.50033442	    178.20333772	      0.53131595	      1.05916446	      0.74986864	     13.67655911	     -5.09062870	      0.56143534	     75.27795708	      1.31384821	      5.27535406	     -3.51415558	     -7.49999987	     12.41384755	      3.49963125	      2.75809719	     16.31027588	      0.28466802	     -6.93496741	     -9.96580151	     -7.49999987	    -18.00367563	     -3.76526593	      3.51500657	      9.42958711	    -16.92433187	      5.09968842	     29.81439375	     99.69288027	     13.94257678	    -10.15379627	     14.61704501	     16.09563414	    103.71167626
     29.78333330	     -2.67910358	     -1.77361469	    178.23242588	      0.52842667	      1.06221177	      0.74927678	     16.78596421	     -5.52261716	      1.13955403	     78.65898151	      1.37285821	      6.70946595	     -2.36964188	     -7.49999987	     12.12256989	      3.89509863	      2.87347734	     17.22771589	      0.30068036	     -6.20814509	    -10.13857008	     -7.49999987	    -17.64722011	     -3.98992750	      2.93542963	      8.68341204	    -16.34494444	      4.69778526	     28.96124129	    100.04985906	     14.39137317	    -10.64647712	     14.31578407	     16.82576544	    104.07547113
     29.80000000	     -2.50802206	     -1.87026512	    178.05287365	      0.52589004	      1.06656453	      0.74644379	     19.52816801	     -5.60165090	      1.78818608	     81.14550297	      1.41625620	      8.83124418	     -1.51637227	     -7.49999987	     11.33782002	      4.02318177	      2.86927668	     17.88886772	      0.31221964	     -5.33050610	    -10.07084396	     -7.49999987	    -17.51868970	     -4.10257422	      2.52840672	      7.91901060	    -15.85418325	      4.57895193	     28.40212936	    100.32394960	     14.75538575	    -11.22852841	     13.99670300	     18.04156882	    103.91607840
     29.81666670	     -2.36555644	     -1.66587350	    177.77572797	      0.52317601	      1.07191087	      0.74325932	     22.05701761	     -5.13330261	      2.34086521	     82.67964397	      1.44303201	     11.41898428	     -1.58419923	     -7.49999987	     10.24376554	      3.74487042	      2.73185211	     18.30868920	      0.31954691	     -4.07276425	     -9.49178398	     -7.49999987	    -17.29480451	     -3.96019847	      2.23457068	      7.36963403	    -15.32505561	      4.53571138	     27.46043837	    100.79040048	     15.24403058	    -11.67744981	     13.50589631	     18.83666555	    104.18487800
     29.83333330	     -2.34637666	     -1.23736315	    177.47578180	      0.52049990	      1.07662913	      0.74164172	     24.06363585	     -4.27280092	      2.76606965	     82.99519831	      1.44853947	     14.07158048	     -2.01552958	     -7.49999987	      8.74485123	      3.25335208	      2.77605944	     18.31513435	      0.31965940	     -3.05014766	     -9.16574943	     -7.49999987	    -17.15644150	     -3.56528871	      2.04464325	      6.85730342	    -14.99186063	      4.91487792	     26.68261235	    101.07024336	     15.68135478	    -12.07638851	     13.00129244	     19.89580545	    104.23456915
     29.85000000	     -2.33915602	     -0.69945189	    177.24920841	      0.51923733	      1.08028821	      0.74137160	     25.68560433	     -3.20253455	      3.06942414	     82.41511305	      1.43841508	     15.81909606	     -2.77002968	     -7.49999987	      7.17601400	      2.69170139	      2.88452423	     17.94616186	      0.31321961	     -2.27657644	     -8.89829647	     -7.49999987	    -17.00876984	     -3.03979296	      1.93109377	      6.37326258	    -14.72338964	      5.37724750	     25.92223751	    101.14373181	     16.19680945	    -12.44897002	     12.45536315	     20.98447585	    104.24951488
     29.86666670	     -2.25674397	     -0.19176290	    177.02404121	      0.52009413	      1.08384000	      0.74108772	     27.12443226	     -2.12773177	      3.29393335	     81.25270053	      1.41812715	     16.63126484	     -3.61546906	     -7.49999987	      5.79375366	      2.14552590	      2.83664881	     17.28375555	      0.30165844	     -1.85448897	     -8.57094797	     -7.49999987	    -16.82027567	     -2.54091892	      1.97399391	      5.92799630	    -14.48116865	      5.64148973	     25.15297308	    100.65182527	     16.87138135	    -12.77240884	     11.97147774	     21.82491206	    103.71446542
     29.88333330	     -2.23508454	      0.25751769	    176.74825297	      0.52188788	      1.08770945	      0.74040479	     28.14077903	     -1.25860833	      3.33081428	     79.17968870	      1.38194627	     16.40970815	     -4.50023785	     -7.49999987	      4.38841901	      1.63122700	      2.73340728	     16.33673642	      0.28512984	     -1.78575020	     -8.42668426	     -7.49999987	    -16.83431117	     -2.10539237	      2.09478605	      5.47870345	    -14.35501931	      6.17316129	     24.84352280	    100.90809047	     17.42536842	    -13.16156794	     11.00277574	     23.10043984	    103.85545488
     29.90000000	     -2.24985556	      0.44348182	    176.53483136	      0.52381966	      1.09058696	      0.73996769	     28.47516758	     -0.93885335	      3.22356757	     75.27805856	      1.31384998	     14.14110071	     -5.92354439	     -7.49999987	      2.92658019	      1.36935732	      2.76110619	     15.24116269	      0.26600847	     -1.71433069	     -8.38992385	     -7.49999987	    -16.92279533	     -2.00052648	      2.25514181	      5.01243330	    -14.06868543	      6.53937617	     24.51275960	    101.03597656	     18.01844622	    -13.60757175	      9.72759425	     24.48837100	    103.70334009
     29.91666670	     -2.15523226	      0.57240355	    176.26899208	      0.52686836	      1.09281397	      0.74073667	     28.64556758	     -0.82315918	      3.12310995	     70.22115451	      1.22559035	     11.67905980	     -7.48917503	     -7.49999987	      1.52308541	      1.14745981	      2.62616021	     14.12133039	      0.24646371	     -1.53940617	     -8.40143707	     -7.49999987	    -17.07438740	     -1.87183753	      2.39900906	      4.69370979	    -13.84400135	      6.98137535	     24.20117826	    101.08741178	     18.50426053	    -13.96036776	      8.26572826	     25.95549667	    103.26897216
     29.93333330	     -1.95501295	      0.71949759	    176.18719878	      0.53183523	      1.09475653	      0.74148426	     28.39913405	     -0.76103457	      2.86668295	     63.90558697	      1.11536290	      8.56022442	     -9.20256991	     -7.49999987	      0.44948425	      0.89513480	      2.38674560	     13.39491910	      0.23378544	     -1.12275383	     -8.13807087	     -7.49999987	    -17.19189328	     -1.68860119	      2.49505389	      4.26095285	    -13.58461802	      7.27338865	     24.11527285	    100.97381705	     19.10566483	    -14.30599041	      7.15075781	     27.36671591	    102.63694012
